<?xml version="1.0" encoding="UTF-8"?>
<svg width="30px" height="34px" viewBox="0 0 30 34" version="1.1" xmlns="http://www.w3.org/2000/svg" xmlns:xlink="http://www.w3.org/1999/xlink">
    <!-- Generator: Sketch 51.2 (57519) - http://www.bohemiancoding.com/sketch -->
    <title>drawerSpinner-e</title>
    <desc>Created with Sketch.</desc>
    <defs></defs>
    <g id="Spinner" stroke="none" stroke-width="1" fill="none" fill-rule="evenodd">
        <g id="drawerSpinner" transform="translate(-25.000000, -10.000000)" fill="#000000" fill-rule="nonzero">
            <g id="drawerSpinner-e" transform="translate(25.000000, 10.000000)">
                <path d="M10.9322582,25.5562657 C13.0940324,27.0554592 15.4067743,27.7148947 17.8589518,27.5282818 C20.3142743,27.3416689 22.4519356,26.3383624 24.2698389,24.5204592 L28.1929034,28.4435237 C26.5710485,30.061185 24.8076614,31.2573947 22.8954034,32.0269108 C20.9852421,32.796427 18.9146776,33.1549753 16.6847582,33.1015076 C14.5858872,33.0480399 12.5362905,32.5982818 10.5317743,31.7480399 C8.52725821,30.8977979 6.78483885,29.7309431 5.29612918,28.2422334 C3.75814531,26.7042495 2.57870982,25.0027173 1.76411305,23.1376366 C0.9474195,21.272556 0.498709822,19.2774753 0.419032403,17.1544915 C0.314193693,14.8711044 0.642338855,12.743927 1.40346789,10.7740076 C2.16774208,8.80408825 3.35661305,7.00610438 4.97846789,5.38844309 C6.90120982,3.46360438 9.13951627,2.12481406 11.6860485,1.36683019 C14.235726,0.61094309 16.8483066,0.496668897 19.5300808,1.02924954 C21.1645163,1.38779793 22.726613,2.00844309 24.2174195,2.89013664 C25.7124195,3.77287857 27.2210485,4.97642696 28.7485485,6.50183019 L29.3629034,7.1182818 L10.9322582,25.5562657 Z M21.5041937,7.89723341 C19.2071776,6.58255599 16.9625808,6.03634632 14.7651614,6.25545922 C12.5677421,6.47457212 10.6250808,7.42650761 8.93927434,9.11231406 C7.21467756,10.8379592 6.22604853,12.8435237 5.97233885,15.1237657 C5.72072595,17.4071528 6.23233885,19.6632818 7.50822595,21.8932012 L21.5041937,7.89723341 Z" id="Shape"></path>
            </g>
        </g>
    </g>
</svg>